<svg width="873" height="952" viewBox="0 0 873 952" fill="none" xmlns="http://www.w3.org/2000/svg">
<path d="M371.063 302.614L558.084 322.35L387.469 266.432L46.2373 0L371.063 302.614Z" fill="#CC4040"/>
<path d="M305.442 411.161L174.199 184.2L338.253 351.953L866.505 401.293L305.442 411.161Z" fill="#CC4040"/>
<path d="M448.557 572.784L337.279 724.76L471.458 605.227L873 444.092L448.557 572.784Z" fill="#CC4040"/>
<path d="M388.125 461.251L649.808 462.029L422.592 519.505L113.798 952L388.125 461.251Z" fill="#CC4040"/>
<path d="M175.79 499.642L94.5527 329.615L136.453 504.595L88.9136 935.567L175.79 499.642Z" fill="#CC4040"/>
<path d="M302.395 498.79L178.35 729.783L234.901 501.801L0 24.9064L302.395 498.79Z" fill="#CC4040"/>
</svg>
