<svg width="84" height="84" viewBox="0 0 84 84" fill="none" xmlns="http://www.w3.org/2000/svg">
<g filter="url(#filter0_d_321_384)">
<rect x="4" width="76" height="76" rx="6" fill="#FF5050"/>
</g>
<circle cx="24.5" cy="24.5" r="4.5" fill="white"/>
<circle cx="24.5" cy="52.5" r="4" stroke="white"/>
<rect x="41" y="20" width="2" height="37" rx="1" fill="white"/>
<g clip-path="url(#clip0_321_384)">
<path d="M62.742 23.0026C61.9794 22.9079 61.4315 22.1615 61.5192 21.335C61.6062 20.5086 62.2954 19.9155 63.0576 20.0099C63.8201 20.1045 64.3676 20.8509 64.2803 21.6774C64.1935 22.5039 63.5046 23.097 62.742 23.0026Z" fill="white"/>
<path d="M54.7575 33.6157C55.8366 31.6306 59.1926 25.2166 59.7497 24.1698C58.6621 23.7937 57.6683 24.137 56.8868 25.3233C56.2513 26.2882 54.7648 25.3631 55.408 24.3864C56.9204 22.0906 59.1761 21.5206 61.4342 22.9734C61.5287 23.0339 61.9517 23.2873 62.0471 23.3487C63.4516 24.2517 64.7557 24.0808 65.7301 22.6016C66.3663 21.6364 67.8528 22.562 67.2093 23.5385C65.9657 25.4255 64.2203 26.1455 62.384 25.5354C61.8082 26.6072 61.2612 27.6986 60.736 28.8003C61.5124 29.23 62.2315 29.7664 62.8998 30.397C63.2944 30.7697 63.2296 31.2585 62.9646 31.5879C62.9004 31.7382 60.8582 33.1337 59.9736 33.7092C59.0245 34.327 58.1634 32.7217 59.1091 32.1064C59.6809 31.7346 60.2523 31.3624 60.8239 30.9901C60.2734 30.5882 58.8592 29.9251 58.7843 29.8611C57.9355 31.4259 57.085 32.9885 56.2361 34.5524C55.6775 35.5828 54.1965 34.6492 54.7575 33.6157Z" fill="white"/>
</g>
<path d="M53.7786 49.3652L57.0183 49.7817C57.1313 50.0688 57.701 51.4818 57.8081 51.7347C57.8081 51.7347 57.8081 51.7347 57.8066 51.7347C56.868 52.1988 55.9294 52.6614 54.9909 53.1254C55.3166 53.066 55.6468 53.0362 55.9785 53.0362C56.4129 53.0362 56.8383 53.0883 57.2443 53.1909C58.0639 53.3991 58.8047 53.7323 59.5201 54.0551C60.1582 54.3422 60.7621 54.6144 61.3646 54.7706C61.4493 54.7929 61.5311 54.8122 61.613 54.8286C60.899 53.3664 58.9787 49.4262 58.5994 48.559C58.4209 48.15 58.1755 47.9982 57.8274 47.9536L54.0226 47.4643C53.4975 47.3973 53.0171 47.7677 52.9486 48.2928C52.8832 48.8178 53.2535 49.2983 53.7786 49.3652Z" fill="white"/>
<path d="M52.248 56.1985C52.3536 56.2744 52.4741 56.3101 52.5946 56.3101C52.6214 56.3101 52.6467 56.3086 52.6719 56.3041C52.8296 56.2833 52.9784 56.2 53.078 56.0617C53.4633 55.5247 54.0597 55.1023 54.7544 54.8702C55.153 54.7378 55.5695 54.6709 55.9785 54.6709C57.4615 54.6709 58.7333 55.5574 60.0719 56.0676C60.7889 56.3413 61.5371 56.5436 62.3507 56.5436C62.6928 56.5436 63.0468 56.5079 63.4142 56.4261C64.2784 56.2357 65.0192 55.8252 65.5547 55.2495C65.6826 55.1112 65.7986 54.9654 65.9012 54.8092C66.0827 54.5355 66.0068 54.1667 65.7331 53.9852C65.632 53.9182 65.519 53.887 65.4059 53.887C65.2125 53.887 65.0236 53.9807 64.9091 54.1533C64.863 54.2232 64.8124 54.2901 64.7574 54.3556C64.3855 54.7988 63.8277 55.1171 63.1584 55.2644C62.5411 55.3998 61.8598 55.3596 61.2515 55.2019C60.6119 55.0353 59.9931 54.7572 59.3357 54.4612C58.6366 54.1473 57.9152 53.8216 57.1328 53.6223C56.7609 53.5271 56.3712 53.481 55.977 53.481C55.4401 53.481 54.8942 53.5687 54.3751 53.7413C53.9214 53.893 53.5004 54.1042 53.1226 54.3704C52.724 54.6516 52.3834 54.9862 52.1097 55.367C52.0918 55.3923 52.077 55.4176 52.0636 55.4444C51.9342 55.7017 52.0056 56.0245 52.248 56.1985Z" fill="white"/>
<path d="M63.0201 53.4378C64.1792 53.4378 65.1189 52.4982 65.1189 51.339C65.1189 50.1799 64.1792 49.2402 63.0201 49.2402C61.861 49.2402 60.9213 50.1799 60.9213 51.339C60.9213 52.4982 61.861 53.4378 63.0201 53.4378Z" fill="white"/>
<defs>
<filter id="filter0_d_321_384" x="0" y="0" width="84" height="84" filterUnits="userSpaceOnUse" color-interpolation-filters="sRGB">
<feFlood flood-opacity="0" result="BackgroundImageFix"/>
<feColorMatrix in="SourceAlpha" type="matrix" values="0 0 0 0 0 0 0 0 0 0 0 0 0 0 0 0 0 0 127 0" result="hardAlpha"/>
<feOffset dy="4"/>
<feGaussianBlur stdDeviation="2"/>
<feColorMatrix type="matrix" values="0 0 0 0 0 0 0 0 0 0 0 0 0 0 0 0 0 0 0.25 0"/>
<feBlend mode="normal" in2="BackgroundImageFix" result="effect1_dropShadow_321_384"/>
<feBlend mode="normal" in="SourceGraphic" in2="effect1_dropShadow_321_384" result="shape"/>
</filter>
<clipPath id="clip0_321_384">
<rect width="14" height="15" fill="white" transform="matrix(-1 0 0 1 68 20)"/>
</clipPath>
</defs>
</svg>
